<svg viewBox="0 0 1000.25 1001.0101" xmlns="http://www.w3.org/2000/svg"><path d="m800 704.456c-7-8-8-20-2-29 44-68 69-148 69-235 0-239-194-434-433-434s-434 195-434 434 195 434 434 434c93 0 179-30 250-80 8-6 21-6 28 2l155 155 3 3c2 1 9 8 17 15l18 19c7 7 19 7 26 0l64-64c7-7 7-19 0-26zm-104-62c-14 19-30 36-48 51-58 49-133 79-214 79-183 0-332-149-332-332s149-332 332-332 331 149 331 332c0 76-26 146-69 202zm-510-253v40c0 10 6 14 14 7l216-167c8-6 21-6 29 0l216 167c8 7 15 3 15-7v-40c0-11-7-24-15-30l-216-168c-8-6-21-6-29 0l-216 168c-8 6-14 19-14 30zm61 70v147c0 10 8 18 19 18h85c10 0 19-8 19-18v-85c0-11 8-19 18-19h85c11 0 19 8 19 19v85c0 10 8 18 19 18h85c10 0 19-8 19-18v-147c0-10-7-23-15-29l-154-116c-9-6-22-6-30 0l-154 116c-8 6-15 19-15 29z"/></svg>